# xmcd
#
# Track frame offsets:
#	150
#	14558
#	30220
#	45393
#	60330
#	75539
#	88811
#	103949
#	119156
#	134565
#	153174
#	166379
#	186609
#	198873
#	212685
#	229508
#	244691
#	258674
#	276986
#	292847
#	309899
#	324536
#
# Disc length: 4560 seconds
#
# Revision: 1
# Processed by: cddbd v1.5.1PL0 Copyright (c) Steve Scherf et al.
# Submitted via: audiograbber 1.83.01
#
DISCID=3211ce16
DTITLE=Tony Christie - Is This The Way To Amarillo
DYEAR=1900
DGENRE=Easy Listening
TTITLE0=Is This The Way To Amarillo
TTITLE1=I Did What I Did For Maria
TTITLE2=Las Vegas
TTITLE3=Avenues And Alleyways
TTITLE4=Drive Safely Darlin'
TTITLE5=Queen Of The Mardi Gras
TTITLE6=Don't Go Down To Reno
TTITLE7=On This Night Of 1000 Stars
TTITLE8=You've Lost That Lovin' Feelin'
TTITLE9=My Sweet Lord
TTITLE10=On Broadway
TTITLE11=The Way We Were
TTITLE12=The Most Beautiful Girl In The World
TTITLE13=Daddy Don't You Walk So Fast
TTITLE14=Feelings
TTITLE15=I'm Not In love
TTITLE16=Love Hurts
TTITLE17=Solitaire
TTITLE18=Didn't We
TTITLE19=Happy Birthday Baby
TTITLE20=Tie A Yellow Ribbon
TTITLE21=Drift Away
EXTD=
EXTT0=
EXTT1=
EXTT2=
EXTT3=
EXTT4=
EXTT5=
EXTT6=
EXTT7=
EXTT8=
EXTT9=
EXTT10=
EXTT11=
EXTT12=
EXTT13=
EXTT14=
EXTT15=
EXTT16=
EXTT17=
EXTT18=
EXTT19=
EXTT20=
EXTT21=
PLAYORDER=
